<svg width="22" height="21" viewBox="0 0 22 21" fill="none" xmlns="http://www.w3.org/2000/svg">
<mask id="mask0_1_3454" style="mask-type:luminance" maskUnits="userSpaceOnUse" x="0" y="0" width="22" height="21">
<path d="M21.0276 10.5C21.0276 9.37148 19.9896 8.59091 18.861 8.59091H13.0333C11.913 8.59091 11.0049 9.49906 11.0049 10.6193C11.0049 11.7396 11.913 12.6477 13.0333 12.6477H13.5369C15.1384 12.6477 16.3381 14.2359 15.1434 15.3025C14.1238 16.2128 12.6833 16.7045 11.0049 16.7045C7.56852 16.7045 4.80034 13.9364 4.80034 10.5C4.80034 7.06364 7.56852 4.29545 11.0049 4.29545C11.7705 4.29545 12.4978 4.43604 13.1669 4.69074C14.2166 5.09036 15.4756 5.07472 16.2699 4.28048C17.1653 3.38508 17.1209 1.89468 16.0112 1.28467C14.5273 0.468958 12.8331 0 11.0049 0C5.18216 0 0.504883 4.67727 0.504883 10.5C0.504883 16.3227 5.18216 21 11.0049 21C16.2549 21 21.0276 17.1818 21.0276 10.5Z" fill="white"/>
</mask>
<g mask="url(#mask0_1_3454)">
<path d="M4.47941 12.9355C2.46187 14.4784 -0.449219 13.0398 -0.449219 10.5C-0.449219 7.96012 2.46187 6.52154 4.47941 8.06436C6.08422 9.29157 6.08422 11.7083 4.47941 12.9355Z" fill="#FBBC05"/>
</g>
<mask id="mask1_1_3454" style="mask-type:luminance" maskUnits="userSpaceOnUse" x="0" y="0" width="22" height="21">
<path d="M21.0276 10.5C21.0276 9.37148 19.9896 8.59091 18.861 8.59091H13.0333C11.913 8.59091 11.0049 9.49906 11.0049 10.6193C11.0049 11.7396 11.913 12.6477 13.0333 12.6477H13.5369C15.1384 12.6477 16.3381 14.2359 15.1434 15.3025C14.1238 16.2128 12.6833 16.7045 11.0049 16.7045C7.56852 16.7045 4.80034 13.9364 4.80034 10.5C4.80034 7.06364 7.56852 4.29545 11.0049 4.29545C11.7705 4.29545 12.4978 4.43604 13.1669 4.69074C14.2166 5.09036 15.4756 5.07472 16.2699 4.28048C17.1653 3.38508 17.1209 1.89468 16.0112 1.28467C14.5273 0.468958 12.8331 0 11.0049 0C5.18216 0 0.504883 4.67727 0.504883 10.5C0.504883 16.3227 5.18216 21 11.0049 21C16.2549 21 21.0276 17.1818 21.0276 10.5Z" fill="white"/>
</mask>
<g mask="url(#mask1_1_3454)">
<path d="M-0.449219 2.55906C-0.449219 3.65346 0.0607209 4.68536 0.930064 5.35016L5.0695 8.51561C6.57964 9.67042 8.70727 9.59119 10.1405 8.34222C10.7027 7.85228 11.3954 7.52522 12.1315 7.4056L19.4284 6.21984C21.176 5.93586 22.4599 4.42654 22.4599 2.656C22.4599 0.661926 20.8434 -0.95459 18.8493 -0.95459H3.06443C1.12389 -0.95459 -0.449219 0.618525 -0.449219 2.55906Z" fill="#EA4335"/>
</g>
<mask id="mask2_1_3454" style="mask-type:luminance" maskUnits="userSpaceOnUse" x="0" y="0" width="22" height="21">
<path d="M21.0276 10.5C21.0276 9.37148 19.9896 8.59091 18.861 8.59091H13.0333C11.913 8.59091 11.0049 9.49906 11.0049 10.6193C11.0049 11.7396 11.913 12.6477 13.0333 12.6477H13.5369C15.1384 12.6477 16.3381 14.2359 15.1434 15.3025C14.1238 16.2128 12.6833 16.7045 11.0049 16.7045C7.56852 16.7045 4.80034 13.9364 4.80034 10.5C4.80034 7.06364 7.56852 4.29545 11.0049 4.29545C11.7705 4.29545 12.4978 4.43604 13.1669 4.69074C14.2166 5.09036 15.4756 5.07472 16.2699 4.28048C17.1653 3.38508 17.1209 1.89468 16.0112 1.28467C14.5273 0.468958 12.8331 0 11.0049 0C5.18216 0 0.504883 4.67727 0.504883 10.5C0.504883 16.3227 5.18216 21 11.0049 21C16.2549 21 21.0276 17.1818 21.0276 10.5Z" fill="white"/>
</mask>
<g mask="url(#mask2_1_3454)">
<path d="M-0.449219 18.439C-0.449219 17.3456 0.0595682 16.3144 0.927324 15.6492L12.6618 6.65276C13.4352 6.05981 14.4113 5.79587 15.3781 5.91826L16.2842 6.03295C17.1152 6.13814 17.9345 5.76619 18.4024 5.07139C19.625 3.25558 22.4599 4.12103 22.4599 6.3101V17.9545C22.4599 20.1636 20.669 21.9545 18.4599 21.9545H3.06624C1.1247 21.9545 -0.449219 20.3806 -0.449219 18.439Z" fill="#34A853"/>
</g>
<mask id="mask3_1_3454" style="mask-type:luminance" maskUnits="userSpaceOnUse" x="0" y="0" width="22" height="21">
<path d="M21.0276 10.5C21.0276 9.37148 19.9896 8.59091 18.861 8.59091H13.0333C11.913 8.59091 11.0049 9.49906 11.0049 10.6193C11.0049 11.7396 11.913 12.6477 13.0333 12.6477H13.5369C15.1384 12.6477 16.3381 14.2359 15.1434 15.3025C14.1238 16.2128 12.6833 16.7045 11.0049 16.7045C7.56852 16.7045 4.80034 13.9364 4.80034 10.5C4.80034 7.06364 7.56852 4.29545 11.0049 4.29545C11.7705 4.29545 12.4978 4.43604 13.1669 4.69074C14.2166 5.09036 15.4756 5.07472 16.2699 4.28048C17.1653 3.38508 17.1209 1.89468 16.0112 1.28467C14.5273 0.468958 12.8331 0 11.0049 0C5.18216 0 0.504883 4.67727 0.504883 10.5C0.504883 16.3227 5.18216 21 11.0049 21C16.2549 21 21.0276 17.1818 21.0276 10.5Z" fill="white"/>
</mask>
<g mask="url(#mask3_1_3454)">
<path d="M22.4594 13.7991C22.4594 17.1235 18.6395 18.9971 16.0107 16.962L7.66397 10.5C6.88038 9.91226 7.10762 8.68164 8.04943 8.41255L17.3605 5.75223C19.9158 5.02216 22.4594 6.94082 22.4594 9.59833V13.7991Z" fill="#4285F4"/>
</g>
</svg>
